FFmpeg version SVN-r25716, Copyright (c) 2000-2010 the FFmpeg developers  built on Nov 10 2010 12:23:18 with gcc 4.1.2 20080704 (Red Hat 4.1.2-48)  configuration: --enable-libmp3lame --enable-shared --disable-mmx --arch=x86_64  libavutil     50.33. 0 / 50.33. 0  libavcore      0.12. 1 /  0.12. 1  libavcodec    52.94. 4 / 52.94. 4  libavformat   52.84. 0 / 52.84. 0  libavdevice   52. 2. 2 / 52. 2. 2  libavfilter    1.59. 0 /  1.59. 0  libswscale     0.12. 0 /  0.12. 0Input #0, avi, from '/RAID10/data/converted_video_files/31927.avi':  Duration: 00:01:20.83, start: 0.000000, bitrate: 198182 kb/s    Stream #0.0: Video: rawvideo, bgr24, 1344x1024, 6 tbr, 6 tbn, 6 tbc[buffer @ 0xfb583e0] w:1344 h:1024 pixfmt:bgr24[ffsink @ 0xfb58650] auto-inserting filter 'auto-inserted scaler 0' between the filter 'src' and the filter 'out'[scale @ 0xfb58970] w:1344 h:1024 fmt:bgr24 -> w:1344 h:1024 fmt:yuv420p flags:0x4Output #0, flv, to '/RAID10/data/converted_video_files/31927.flv':  Metadata:    encoder         : Lavf52.84.0    Stream #0.0: Video: flv, yuv420p, 1344x1024, q=2-31, 600 kb/s, 1k tbn, 24 tbcStream mapping:  Stream #0.0 -> #0.0Press [q] to stop encodingframe=    9 fps=  0 q=15.3 size=     407kB time=1.38 bitrate=2426.0kbits/s    frame=   21 fps= 19 q=31.0 size=     478kB time=3.38 bitrate=1159.8kbits/s    frame=   34 fps= 21 q=31.0 size=     549kB time=5.54 bitrate= 811.6kbits/s    frame=   45 fps= 21 q=31.0 size=     614kB time=7.38 bitrate= 682.2kbits/s    frame=   55 fps= 21 q=27.7 size=     677kB time=9.04 bitrate= 613.3kbits/s    frame=   64 fps= 20 q=25.0 size=     741kB time=10.54 bitrate= 575.9kbits/s    frame=   76 fps= 20 q=28.6 size=     827kB time=12.54 bitrate= 540.3kbits/s    frame=   84 fps= 20 q=26.7 size=     864kB time=13.88 bitrate= 510.1kbits/s    frame=   96 fps= 20 q=23.6 size=     951kB time=15.88 bitrate= 491.0kbits/s    frame=  108 fps= 21 q=23.6 size=    1047kB time=17.88 bitrate= 480.0kbits/s    frame=  120 fps= 21 q=23.7 size=    1148kB time=19.88 bitrate= 473.1kbits/s    frame=  132 fps= 21 q=21.2 size=    1248kB time=21.88 bitrate= 467.5kbits/s    frame=  142 fps= 21 q=20.7 size=    1340kB time=23.54 bitrate= 466.4kbits/s    frame=  153 fps= 21 q=19.4 size=    1440kB time=25.38 bitrate= 464.8kbits/s    frame=  165 fps= 21 q=18.8 size=    1548kB time=27.38 bitrate= 463.2kbits/s    frame=  176 fps= 21 q=20.4 size=    1659kB time=29.21 bitrate= 465.2kbits/s    frame=  186 fps= 21 q=19.1 size=    1760kB time=30.88 bitrate= 467.0kbits/s    frame=  192 fps= 20 q=18.6 size=    1802kB time=31.88 bitrate= 463.2kbits/s    frame=  201 fps= 20 q=18.5 size=    1899kB time=33.38 bitrate= 466.2kbits/s    frame=  211 fps= 20 q=19.0 size=    2008kB time=35.04 bitrate= 469.3kbits/s    frame=  223 fps= 20 q=18.6 size=    2131kB time=37.04 bitrate= 471.3kbits/s    frame=  234 fps= 20 q=18.3 size=    2250kB time=38.88 bitrate= 474.1kbits/s    frame=  245 fps= 20 q=18.3 size=    2371kB time=40.71 bitrate= 477.0kbits/s    frame=  255 fps= 20 q=18.0 size=    2484kB time=42.38 bitrate= 480.2kbits/s    frame=  263 fps= 20 q=18.5 size=    2549kB time=43.71 bitrate= 477.8kbits/s    frame=  274 fps= 20 q=18.5 size=    2674kB time=45.54 bitrate= 480.9kbits/s    frame=  284 fps= 20 q=18.2 size=    2790kB time=47.21 bitrate= 484.1kbits/s    frame=  293 fps= 20 q=16.9 size=    2896kB time=48.71 bitrate= 487.1kbits/s    frame=  304 fps= 20 q=16.9 size=    3018kB time=50.54 bitrate= 489.2kbits/s    frame=  316 fps= 20 q=16.9 size=    3152kB time=52.54 bitrate= 491.4kbits/s    frame=  327 fps= 20 q=17.1 size=    3279kB time=54.38 bitrate= 494.0kbits/s    frame=  336 fps= 20 q=16.6 size=    3351kB time=55.88 bitrate= 491.3kbits/s    frame=  347 fps= 20 q=17.1 size=    3481kB time=57.71 bitrate= 494.1kbits/s    frame=  359 fps= 20 q=16.6 size=    3617kB time=59.71 bitrate= 496.2kbits/s    frame=  370 fps= 20 q=17.1 size=    3745kB time=61.54 bitrate= 498.5kbits/s    frame=  379 fps= 20 q=16.6 size=    3857kB time=63.04 bitrate= 501.2kbits/s    frame=  388 fps= 20 q=16.1 size=    3969kB time=64.54 bitrate= 503.8kbits/s    frame=  394 fps= 20 q=16.7 size=    4021kB time=65.54 bitrate= 502.6kbits/s    frame=  404 fps= 20 q=16.8 size=    4143kB time=67.21 bitrate= 505.1kbits/s    frame=  415 fps= 20 q=16.4 size=    4275kB time=69.04 bitrate= 507.2kbits/s    frame=  426 fps= 20 q=16.6 size=    4406kB time=70.88 bitrate= 509.2kbits/s    frame=  437 fps= 20 q=16.7 size=    4540kB time=72.71 bitrate= 511.5kbits/s    frame=  449 fps= 20 q=16.0 size=    4682kB time=74.71 bitrate= 513.4kbits/s    frame=  460 fps= 20 q=16.8 size=    4816kB time=76.54 bitrate= 515.4kbits/s    frame=  471 fps= 20 q=17.0 size=    4952kB time=78.38 bitrate= 517.6kbits/s    frame=  478 fps= 20 q=17.4 size=    5018kB time=79.54 bitrate= 516.8kbits/s    frame=  485 fps= 20 q=17.2 Lsize=    5117kB time=80.71 bitrate= 519.4kbits/s    video:5109kB audio:0kB global headers:0kB muxing overhead 0.152336%